<svg xmlns="http://www.w3.org/2000/svg" viewBox="0 0 226.84 156.51"><defs><style>.cls-1{fill:#fff;}</style></defs><g id="Capa_2" data-name="Capa 2"><g id="Capa_1-2" data-name="Capa 1"><path class="cls-1" d="M224.55,136.19c-3.65-5-9.23-8.67-14.12-12.35-6.85-5.17-12.87-11.22-19.37-16.78,8.64-5.87,6.31-23.34,6.2-32.16-.24-18.76-.93-37.58-1.4-56.34-.13-5.39-.09-11.62-5-15.19C185.42-.55,174.16,1,167.63.51c-18.25-1.45-36.82.72-55.16.05L50.53.91C44.91.94,39.65.35,36,5.23,31.24,11.47,32.32,20.79,32.61,28c.93,22.93-1.38,45.93.19,68.94.35,5.16,2.54,8.36,5.7,10.35-8.57,6.07-17.37,11.81-25.57,18.38C6.87,130.54,0,135.11,0,143.46c0,7.35,3.42,11.11,10.48,11.93,14,1.63,28.76,1.14,42.8.64,32.52-1.18,64.94-.18,97.43-1.07,14.07-.39,28.12,0,42.19.11,8.6.07,24.15,3.12,30.74-4A11.5,11.5,0,0,0,224.55,136.19Zm-185.89-57c-.31-9.76-.57-19.53-.27-29.3.28-9,.61-17.82.4-26.84-.13-5.79-.1-13.44,6.79-15.68,3.72-1.21,9.67-.06,13.55-.08Q85.8,7.11,112.47,7c11.45.42,23,.65,34.45,0,8.59-.48,39.19-3.44,42.36,7,1.12,3.7.21,8.93.2,12.82,0,8.6.21,17.19.59,25.79.3,6.86.64,13.72.75,20.59.08,4.29.08,8.57,0,12.86-.15,6.16.83,11.21-4.69,14.5-6.19,3.69-17.32,1.61-24.52,1.57-8,0-15.91-.27-23.88-.16-15.6.22-31.18,1.09-46.79,1.26-7.51.08-15-.21-22.54.1-6.81.29-18.63,3.07-25-.42C36.48,99.09,38.87,85.64,38.66,79.16ZM216.4,148.21c-5,2.35-16.33.51-21.84.47-27.82-.16-55.79-1-83.56-.64-29,.38-58,2.18-87.1,1.52-5.63-.12-16.9,1.21-17.5-6.1-.38-4.66,4.36-7.6,7.53-10.35C23.6,124.71,34.65,118,45,110.53a4.17,4.17,0,0,0,.7-.69c5,.83,10.76.5,15.74.24,20.23-1,40.57-.73,60.83-1.38,10-.33,20.1-.54,30.16-.39s21.11,1.42,31.21.79c.06.05.1.11.17.16,10.36,8.35,21.08,17.19,31,26.07C218.58,138.77,225,144.18,216.4,148.21Z"/><path class="cls-1" d="M52.09,94.89c20.82-.35,41.78-.32,62.59-1.2s42.56-2,63.49-.68a2.41,2.41,0,0,0,2.4-2.4c-.58-23.71-.7-47.37-1.64-71.11a2.45,2.45,0,0,0-2.4-2.4c-41.85.51-83.7-.5-125.56-.05a2.19,2.19,0,0,0-1.36.47,2.09,2.09,0,0,0-1,1.93q.55,36.51,1.12,73A2.43,2.43,0,0,0,52.09,94.89Zm122.12-73C175,44,175.21,66,175.72,88.1c-20.16-1-40.91-.07-61,.79s-40.18.86-60.23,1.17L53.4,21.83C93.68,21.46,134,22.35,174.21,21.92Z"/><path class="cls-1" d="M136.46,126.54a2.52,2.52,0,0,0-2.31-1.76c-13.21-.9-26.33.33-39.53.4a2.51,2.51,0,0,0-2.32,1.76,66.23,66.23,0,0,0-3.9,12.63,2.48,2.48,0,0,0,.12,1.4,2.17,2.17,0,0,0,2.19,1.64c15.82,0,32.69,1.2,48.35-1.25a2.42,2.42,0,0,0,1.68-3C139.3,134.44,138,130.47,136.46,126.54ZM93.82,137.83a47,47,0,0,0,1.59-5.89l.8-1.95.21,0c6.27-.44,12.62-.48,18.91-.64,5.58-.13,11.47-.62,17,.14l.11,0c.28.74.57,1.47.85,2.21a29.57,29.57,0,0,0,1.76,5.38C121.66,138.79,107.39,138,93.82,137.83Z"/><path class="cls-1" d="M112.69,14.34c3.09,0,3.09-4.8,0-4.8S109.6,14.34,112.69,14.34Z"/><path class="cls-1" d="M57.27,30.1q2.73,4.34,5.82,8.41a2.49,2.49,0,0,0,3.29.86,2.43,2.43,0,0,0,.86-3.29q-3.09-4.08-5.83-8.4C59.76,25.08,55.61,27.48,57.27,30.1Z"/><path class="cls-1" d="M72.61,38c2.12,2.25,5.51-1.15,3.39-3.39q-3.75-4-7.51-8C66.37,24.37,63,27.77,65.1,30Q68.85,34,72.61,38Z"/></g></g></svg>