<svg xmlns="http://www.w3.org/2000/svg" viewBox="0 0 197.96 165.14"><defs><style>.cls-1{fill:#fff;}</style></defs><g id="Capa_2" data-name="Capa 2"><g id="Capa_1-2" data-name="Capa 1"><path class="cls-1" d="M75.58,140.49h0c-7.55-.92-14.36,3.59-14.82,11.73-.44,7.86,6,12.67,13.23,12.9,6.93.23,14.17-4.25,13.87-11.88A13,13,0,0,0,75.58,140.49ZM75.2,159c-3.57.19-7.13-.79-8.15-4.61-1.3-4.86,3-8.76,7.72-7.94h.11a3.81,3.81,0,0,0,.7.1c3.2.13,5.4,2.71,6,5.75C82.4,156.38,78.9,158.84,75.2,159Z"/><path class="cls-1" d="M163.83,140c-7.38-.87-13.22,5.22-12.94,12.46a13.51,13.51,0,0,0,5.28,10.36c2.73,1.95,6.15,1.86,9.37,2.1,7.05.52,11.26-7.47,10-13.72C174.18,144.37,171.32,140.13,163.83,140Zm1.71,18.83c-4.17-.19-7.69-.72-8.44-5.67-.67-4.43,2.26-7.59,6.73-7.07,3.69.05,4.52,1.26,5.35,4.62C169.92,153.74,169.77,159.05,165.54,158.87Z"/><path class="cls-1" d="M188.4,39.48c-18.3-3.75-38.29-2.72-56.86-4.17-28.19-2.2-56.29-3.92-84.55-4.94a54,54,0,0,0-3.28-10.21c-2.8-6.08-8.79-7.35-14.64-9.21.21-2.21-.39-3.9-3-5.29A65.58,65.58,0,0,0,15.31,1.44C10.66-.06-.15-2.26,0,5.92c.12,6.3,8.38,8.7,13.17,10.33,4,1.37,9.74,2.79,13.19.22,3.73,1.25,7.12,1.92,9.88,4.86,3.33,3.53,3.5,8.49,4.59,13.21,2.3,9.93,4.92,19.79,7.61,29.62C52.94,80.63,57.82,97,61.55,113.7A12.27,12.27,0,0,0,53,125.63c.22,9,8.83,11,16.22,11.2,34.48.83,69,.26,103.49.35,3.92,0,3.93-6.09,0-6.1-20.4-.05-40.81,0-61.21,0q-16.27,0-32.55-.23c-4.25-.05-15.46,1.69-18.65-2.22s.46-9.25,4.85-9.63c29.42.28,58.85-.11,88.27.23,7.19.08,19.52,1.39,24.64-5,2.18-2.73,2.82-6.86,3.84-10.07,2.2-6.94,4.48-13.84,6.71-20.76,3.38-10.52,8.13-21.9,9.24-33C198.57,43.47,195,40.83,188.4,39.48ZM13.9,11.68C12.09,11,6.12,9.43,5.18,7.38c-.71-1.56,1-2.76,2.12-3a6,6,0,0,1,2.14.2,37.22,37.22,0,0,1,5.77,1.64c2.15.73,4.27,1.55,6.35,2.42s3.25,1.06,2.65,3.53C23.09,15.19,15.84,12.36,13.9,11.68ZM191.72,47.51c1.67,3.32-2.13,11.88-3.08,15.21-.26.9-.55,1.8-.82,2.7q-12.78-.66-25.54-1.54c1.53-6.85,3.19-13.64,5.06-20.37C175.88,43.56,189.79,43.67,191.72,47.51Zm-9.89,37.11c-.47,1.45-.94,2.9-1.42,4.35q-11.57-.48-23.15-.82c1.29-6.6,2.61-13.2,4-19.77q12.57.87,25.18,1.54Q184.21,77.29,181.83,84.62Zm-49.9,28.81q.58-10.7,1.31-21.37,9.25.22,18.52.49c-1.35,6.93-2.71,13.86-4.14,20.74C142.4,113.37,137.16,113.41,131.93,113.43Zm1.63-25.93q.74-10.55,1.61-21.06,10.74.86,21.51,1.63c-1.42,6.63-2.74,13.28-4,19.93Q143.1,87.73,133.56,87.5ZM67.61,112.94C65.92,105.25,64,97.61,61.94,90q8.76.36,17.52.64c1.6,7.54,3.33,15,5.34,22.49Q76.19,113,67.61,112.94Zm-14-53.17q10.05.75,20.07,1.56c1.6,8.24,3.17,16.49,4.85,24.71q-8.89-.29-17.8-.66C58.34,76.84,55.91,68.31,53.57,59.77Zm35.95,53.37c-2-7.4-3.76-14.86-5.36-22.35q9.66.3,19.35.55c.5,7.33,1,14.66,1.48,22l-15.46-.16A.06.06,0,0,0,89.52,113.14ZM83.19,86.19c-1.69-8.14-3.25-16.31-4.83-24.48q11.6,1,23.17,1.94.87,11.55,1.67,23.11Q93.2,86.51,83.19,86.19ZM77.45,57.07c-1.27-6.5-2.61-13-4.06-19.45q13.14.68,26.29,1.52c.53,6.63,1,13.27,1.51,19.91Q89.33,58,77.45,57.07Zm28.68,7q12.25,1,24.5,2-.88,10.65-1.63,21.32l-21.22-.52Q107,75.46,106.13,64Zm56.49-20.59c-1.82,6.65-3.45,13.37-5,20.13-7.38-.52-14.76-1.09-22.13-1.67q.86-10,1.83-20.1c8.21.59,16.43,1.11,24.65,1.62Zm-29.79-2q-1,10-1.83,20.05-12.61-1-25.21-2.1c-.5-6.66-1-13.33-1.52-20,8.32.56,16.64,1.14,25,1.8Zm-84.56-5q10.2.38,20.38.87c1.47,6.41,2.81,12.85,4.08,19.3q-10.2-.82-20.42-1.57c-.38-1.4-.76-2.8-1.13-4.2C50,46.48,49.21,41.49,48.27,36.51Zm61.29,76.87c-.46-7.31-1-14.62-1.48-21.93l20.6.5q-.74,10.74-1.33,21.48C121.43,113.44,115.49,113.42,109.56,113.38Zm66.07-9.59c-2.92,9.29-8.16,9.06-17.52,9.29-1.93,0-3.88.08-5.81.12,1.4-6.81,2.74-13.65,4.07-20.51,7.53.23,15,.48,22.58.79Q177.27,98.63,175.63,103.79Z"/><path class="cls-1" d="M54.87,147.9c1.16-2.67-2.78-5-3.95-2.31a16.28,16.28,0,0,0,2.32,17.21c1.85,2.29,5.07-1,3.23-3.23A11.44,11.44,0,0,1,54.87,147.9Z"/><path class="cls-1" d="M46.28,151.28a2.29,2.29,0,0,0-4.57,0A11.73,11.73,0,0,0,43,158c1.45,2.57,5.4.26,4-2.3A7.59,7.59,0,0,1,46.28,151.28Z"/></g></g></svg>