<svg xmlns="http://www.w3.org/2000/svg" viewBox="0 0 192.05 164.96"><defs><style>.cls-1{fill:#fff;}</style></defs><g id="Capa_2" data-name="Capa 2"><g id="Capa_1-2" data-name="Capa 1"><path class="cls-1" d="M157.21,43.92c-3.4-.46-7.16.39-10.66,1.07C142.92,36.12,139,27.4,134.67,18.9c-2.7-5.36-5.87-13.84-11.1-17.38-7.23-4.9-15.4,3.21-19.94,8.18C84.3,30.89,66.67,53.25,40.77,67a2.87,2.87,0,0,0-.62.44c-7.29,2.23-14.57,4.52-21.81,6.92-4.67,1.55-11,2.6-14.87,6-6.62,5.89-2.2,18.69.41,25.41,2.46,6.33,8.19,19.09,15.56,21.26a13.35,13.35,0,0,0,6.79-.33c4.38,9.09,8.37,18.44,13.43,27.18,3.25,5.63,6.55,13.12,14.15,10.6,7.94-2.62,17.93-10.72,15.51-20.09-1.22-4.73-5.54-8.26-8.23-12.1a87.9,87.9,0,0,1-7.48-13.53l3.53-1.12c14.86-2.9,29.81-4.38,44.91-2.71,13.44,1.48,26.57,5,39.76,7.84,6.51,1.38,18.9,6.51,23.37-1.37,4.56-8-1.46-23.08-3.53-31.07q-2.13-8.15-4.66-16.22c3.64-2.45,8.16-4.78,9.94-8.88,1.88-4.32,0-9.1-1.81-13.09C163.55,48.69,161.33,44.46,157.21,43.92Zm-142,71a50.23,50.23,0,0,1-5.39-9.73A49.89,49.89,0,0,1,6.51,94.59c-1.43-7.9,3-11.36,9.81-13.66Q28.67,76.77,41.12,73q6.29,19.92,13.33,39.57c-7.36,2.37-14.78,4.56-22.28,6.47C25.2,120.8,19.92,121.57,15.16,115ZM59.4,137c.75,1,1.94,2.27,2.55,3.22,3.67,5.76,3.75,9.31-1.1,14.66a20.48,20.48,0,0,1-5.5,3.84,10.21,10.21,0,0,1-4,1.24,23.87,23.87,0,0,0,1.93-4.24c.88-2.58-3.2-3.68-4.07-1.12a18.62,18.62,0,0,1-1.67,3.52c-.19-.18-.36-.33-.55-.53a15.71,15.71,0,0,1-1.13-1.3,2.21,2.21,0,0,0,.12-.27,21.29,21.29,0,0,1,1.31-2.56,26.79,26.79,0,0,0,1.34-3.23c.89-2.58-3.19-3.68-4.07-1.13a21.93,21.93,0,0,1-1.44,3.11c-.55-1-1.08-2-1.58-3,0,0,0,0,0,0l2.91-6.34a2.18,2.18,0,0,0-.76-2.89,2.13,2.13,0,0,0-2.89.75l-1.62,3.55c-.39-.82-.77-1.62-1.14-2.38-.2-.39-.38-.8-.57-1.19a2.08,2.08,0,0,0,.43-.53q1.43-2.43,2.83-4.86c1.37-2.36-2.28-4.49-3.65-2.13l-1.76,3c-.53-1.13-1.08-2.24-1.6-3.36a3.58,3.58,0,0,0,.43-.44c.84-1.11,1.66-2.23,2.45-3.38A2.12,2.12,0,0,0,33,126.85c-.4.59-.83,1.15-1.24,1.72-.49-1-1-2.07-1.46-3.09,1.2-.39,2.33-.76,3.35-1C39,123.1,44.29,121.6,49.55,120A91.27,91.27,0,0,0,59.4,137Zm78.06-21c-12.14-2.69-24.26-5.67-36.66-6.9-14.19-1.42-28.25,0-42.2,2.5Q51.37,91.49,44.94,71.08C68.22,58.37,86.32,38.53,103.38,18.6c2-2.3,5.1-6.72,8.59-9.67C122,24,128.61,42.78,135.21,59.42a317.78,317.78,0,0,1,17.48,60.18C147.5,119.21,141.1,116.84,137.46,116Zm23.36-1.75a5,5,0,0,1-3.91,5A317,317,0,0,0,138.75,57c-6.69-16.67-13.14-35.27-23.23-50.32a5.87,5.87,0,0,1,5.51.09c2.4,1.37,4.44,6.83,5.7,9.13A299.16,299.16,0,0,1,142,49.07,364.52,364.52,0,0,1,155.85,90.4C157.72,97.47,161.31,106.92,160.82,114.29ZM162.14,65c-1.47,2.09-4.12,3.55-6.47,5Q152.24,59.38,148.13,49c1.68-.28,3.37-.55,5.06-.72,4.12-.44,5.7.74,7.63,4.56C162.67,56.48,164.8,61.15,162.14,65Z"/><path class="cls-1" d="M158.34,31.27c0-4,0-8,0-12,0-2.72-4.21-2.73-4.23,0,0,4,0,8,0,12C154.09,34,158.31,34,158.34,31.27Z"/><path class="cls-1" d="M175.53,39.4l6.61-7.24c1.83-2-1.15-5-3-3l-6.6,7.24C170.72,38.42,173.7,41.41,175.53,39.4Z"/><path class="cls-1" d="M190,53.23c-3.13-.2-6.27-.18-9.41-.28-2.72-.08-2.72,4.15,0,4.23,3.14.1,6.28.08,9.41.27C192.73,57.62,192.72,53.4,190,53.23Z"/><path class="cls-1" d="M174.11,72.46c-2.21-1.59-4.32,2.07-2.13,3.65a87.6,87.6,0,0,1,7.65,6.35c2,1.83,5-1.15,3-3A96.73,96.73,0,0,0,174.11,72.46Z"/><path class="cls-1" d="M22.83,92.37c2.51-1,1.42-5.06-1.12-4.07l-8.5,3.3c-2.51,1-1.42,5.06,1.12,4.07Z"/><path class="cls-1" d="M24,95.21a60.91,60.91,0,0,1-9,3.44c-2.6.77-1.49,4.85,1.12,4.07a68.85,68.85,0,0,0,10-3.86C28.58,97.69,26.44,94.05,24,95.21Z"/></g></g></svg>